<svg version="1.1" xmlns="http://www.w3.org/2000/svg" xmlns:xlink="http://www.w3.org/1999/xlink" width="449" height="1159"><desc>title%20Program%20Manager%20and%20Worker%0A%0Aparticipant%20Worker%0Aparticipant%20Manager%0Adatabase%20Database%0A%0Anote%20over%20Worker%3A%20Every%2010s%0AWorker-%3EManager%3A%20IsSubscribed%3F%0AManager--%3EWorker%3A%20Response%0Anote%20over%20Worker%3A%20Subscribe%20if%20not%0AWorker-%3EManager%3A%20Subscribe%0AManager--%3EWorker%3A%20OK%0A%0Anote%20over%20Manager%3A%20At%20some%20interval%0A%0Aactivate%20Manager%0AManager-%3EManager%3A%20for%20allDBs%0Aactivate%20Manager%0AManager-%3EDatabase%3A%20Get%20Programs%0ADatabase--%3EManager%3A%20Response%0AManager-%3EManager%3A%20Track%20Program%0Adeactivate%20Manager%0Adeactivate%20Manager%0A%0Anote%20over%20Manager%3A%20When%20Program%20shall%20run%0AManager-%3EWorker%3A%20Do%20Task%0Aactivate%20Worker%0AWorker-%3EWorker%3A%20Compile%0AWorker-%3EWorker%3A%20Execute%0AWorker--%3EManager%3A%20Response%0Adeactivate%20Worker%0A</desc><defs/><g><g/><g/><g/><g/><g/><g/><g/><g/><g/><g/><g/><g/><g/><g/><g/><g/><g><rect fill="white" stroke="none" x="0" y="0" width="449" height="1159"/></g><g><text fill="black" stroke="none" font-family="sans-serif" font-size="16.5pt" font-style="normal" font-weight="normal" text-decoration="normal" x="76.54623732469403" y="26.3876361" text-anchor="start" dominant-baseline="alphabetic" xml:space="preserve">Program Manager and Worker</text></g><g/><g><path fill="none" stroke="black" paint-order="fill stroke markers" d=" M 92.72989183226564 138.798965886 L 92.72989183226564 1159.1208950859998" stroke-miterlimit="10" stroke-width="1.4659797833333332" stroke-dasharray="13.532121076923076,5.863919133333333"/><path fill="none" stroke="black" paint-order="fill stroke markers" d=" M 250.10839902744794 138.798965886 L 250.10839902744794 1159.1208950859998" stroke-miterlimit="10" stroke-width="1.4659797833333332" stroke-dasharray="13.532121076923076,5.863919133333333"/><path fill="none" stroke="black" paint-order="fill stroke markers" d=" M 405.83378427438805 138.798965886 L 405.83378427438805 1159.1208950859998" stroke-miterlimit="10" stroke-width="1.4659797833333332" stroke-dasharray="13.532121076923076,5.863919133333333"/></g><g><path fill="none" stroke="none"/><g><path fill="white" stroke="black" paint-order="fill stroke markers" d=" M 50.16281643754298 91.301220906 L 135.2969672269883 91.301220906 L 135.2969672269883 138.798965886 L 50.16281643754298 138.798965886 L 50.16281643754298 91.301220906 Z" stroke-miterlimit="10" stroke-width="2.814681184" stroke-dasharray=""/></g><g><g/><text fill="black" stroke="none" font-family="sans-serif" font-size="11pt" font-style="normal" font-weight="normal" text-decoration="normal" x="69.24987321654298" y="121.207208486" text-anchor="start" dominant-baseline="alphabetic" xml:space="preserve">Worker</text></g><path fill="none" stroke="none"/><g><path fill="white" stroke="black" paint-order="fill stroke markers" d=" M 202.09886452627998 91.301220906 L 298.11793352861594 91.301220906 L 298.11793352861594 138.798965886 L 202.09886452627998 138.798965886 L 202.09886452627998 91.301220906 Z" stroke-miterlimit="10" stroke-width="2.814681184" stroke-dasharray=""/></g><g><g/><text fill="black" stroke="none" font-family="sans-serif" font-size="11pt" font-style="normal" font-weight="normal" text-decoration="normal" x="221.18592130527998" y="121.207208486" text-anchor="start" dominant-baseline="alphabetic" xml:space="preserve">Manager</text></g><g><path fill="white" stroke="black" paint-order="fill stroke markers" d=" M 380.149818470388 104.31912138199999 L 380.149818470388 67.37643084199999 L 431.5177500783881 67.37643084199999 L 431.5177500783881 104.31912138199999" stroke-miterlimit="10" stroke-width="2.990598758" stroke-dasharray=""/><path fill="white" stroke="black" paint-order="fill stroke markers" d=" M 431.5177500783881 66.0922325518 L 431.51646589079945 66.20833621555636 L 431.5126134564514 66.3244282690431 L 431.5061931605841 66.4404971031516 L 431.49720564522175 66.5565311110952 L 431.48565180910845 66.67251868956978 L 431.4715328076182 66.78844823991415 L 431.4548500526393 66.9043081692699 L 431.43560521243336 67.0200868917406 L 431.41380021146847 67.13577282955055 L 431.3894372302264 67.25135441420231 L 431.3625187049851 67.36682008763378 L 431.33304732757466 67.48215830337381 L 431.30102604510813 67.59735752769696 L 431.26645805968724 67.71240624077679 L 431.2293468280816 67.82729293783784 L 431.1896960613835 67.94200613030618 L 431.1475097246365 68.05653434695814 L 431.10279203643927 68.1708661350675 L 431.0555474685232 68.28499006155073 L 431.0057807453058 68.39889471411026 L 430.9534968434179 68.51256870237577 L 430.89870099120617 68.62600065904317 L 430.84139866821005 68.73917924101131 L 430.7815956046142 68.85209313051632 L 430.71929778067505 68.96473103626333 L 430.6545114261232 69.07708169455563 L 430.58724301954 69.18913387042103 L 430.5174992877101 69.3008763587353 L 430.4452872049486 69.41229798534273 L 430.37061399240355 69.52338760817354 L 430.29348711733394 69.63413411835798 L 430.2139142923631 69.74452644133734 L 430.13190347470714 69.85455353797133 L 430.04746286537954 69.96420440564195 L 429.96060090837085 70.07346807935382 L 429.87132628980436 70.18233363283062 L 429.7796479370675 70.29079017960771 L 429.68557501791923 70.39882687412083 L 429.58911693957305 70.50643291279052 L 429.4902833477564 70.6135975351026 L 429.3890841257461 70.72031002468414 L 429.28552939338 70.82655971037511 L 429.17962950604505 70.93233596729549 L 429.0713950536417 71.03762821790771 L 428.9608368595251 71.14242593307448 L 428.84796597942244 71.2467186331116 L 428.7327937003277 71.35049588883598 L 428.6153315393728 71.45374732260854 L 428.49559124267597 71.55646260937192 L 428.37358478416706 71.65863147768304 L 428.24932436439036 71.76024371074024 L 428.12282240928414 71.86128914740488 L 427.9940915689386 71.96175768321748 L 427.86314471633045 72.0616392714082 L 427.72999494603584 72.16092392390144 L 427.59465557292083 72.25960171231469 L 427.45714013081 72.35766276895136 L 427.31746237113293 72.45509728778748 L 427.1756362615492 72.55189552545237 L 427.03167598455155 72.64804780220294 L 426.8855959360477 72.74354450289161 L 426.73741072392085 72.83837607792793 L 426.58713516656866 72.93253304423341 L 426.4347842914217 73.02600598618986 L 426.2803733334404 73.118785556581 L 426.123917733592 73.21086247752712 L 425.9654331373061 73.30222754141282 L 425.8049353929102 73.39287161180788 L 425.642440550045 73.48278562438078 L 425.4779648580594 73.5719605878052 L 425.3115247643855 73.66038758465909 L 425.1431369128941 73.74805777231649 L 424.9728181422298 73.83496238383165 L 424.80058548412796 73.92109272881588 L 424.6264561617107 74.00644019430642 L 424.4504475877652 74.09099624562788 L 424.27257736300226 74.17475242724555 L 424.092863274296 74.2577003636111 L 423.91132329290565 74.33983176 L 423.727975572678 74.42113840334106 L 423.5428384482323 74.50161216303769 L 423.3559304331267 74.58124499178099 L 423.167270218007 74.66002892635444 L 422.9768766687374 74.73795608843025 L 422.7847688245143 74.81501868535715 L 422.59096589596186 74.89120901093965 L 422.39548726321163 74.9665194462087 L 422.19835247396384 75.0409424601835 L 421.9995812415332 75.11447061062472 L 421.7991934428773 75.18709654477856 L 421.597209116609 75.25881300011211 L 421.39364846099267 75.32961280503964 L 421.18853183192414 75.39948887963963 L 420.98187974089547 75.46843423636287 L 420.7737128529435 75.53644198073111 L 420.56405198458356 75.60350531202661 L 420.3529181017278 75.66961752397214 L 420.14033231758856 75.73477200540155 L 419.9263158905671 75.79896224092104 L 419.71089022212766 75.86218181156053 L 419.49407685465775 75.92442439541566 L 419.27589746931335 75.98568376827987 L 419.05637388385117 76.04595380426694 L 418.8355280504468 76.10522847642352 L 418.6133820534996 76.16350185733178 L 418.3899581074241 76.22076811970217 L 418.16527855442877 76.27702153695618 L 417.93936586228165 76.33225648379899 L 417.7122426220636 76.38646743678191 L 417.48393154590957 76.43964897485485 L 417.2544554647368 76.49179577990829 L 417.0238373259622 76.54290263730519 L 416.7921001912074 76.59296443640241 L 416.55926723399284 76.64197617106174 L 416.3253617374202 76.68993294015058 L 416.0904070918442 76.73682994803197 L 415.8544267925336 76.7826625050442 L 415.61744443732175 76.82742602796976 L 415.37948372424654 76.87111604049369 L 415.14056844918116 76.91372817365111 L 414.9007225034539 76.95525816626423 L 414.65996987145945 76.99570186536839 L 414.4183346282604 77.03505522662739 L 414.1758409371798 77.0733143147379 L 413.9325130473846 77.11047530382298 L 413.688375291461 77.1465344778147 L 413.4434520829812 77.1814882308257 L 413.19776791406184 77.21533306750982 L 412.9513473529152 77.24806560341159 L 412.704215041392 77.2796825653047 L 412.4563956925174 77.31018079151929 L 412.20791408801983 77.33955723225817 L 411.95879507585266 77.36780894990176 L 411.7090635677095 77.3949331193018 L 411.45874453653306 77.42092702806399 L 411.20786301401785 77.44578807681908 L 410.95644408810705 77.46951377948295 L 410.70451290048373 77.49210176350509 L 410.4520946440568 77.51354977010593 L 410.1992145604414 77.53385565450264 L 409.9458979374353 77.55301738612376 L 409.6921701064896 77.57103304881205 L 409.438056440176 77.58790084101629 L 409.1835823496494 77.6036190759713 L 408.92877328210676 77.61818618186668 L 408.6736547182425 77.63160070200398 L 408.4182521697004 77.64386129494237 L 408.1625911765225 77.65496673463277 L 407.906697304595 77.66491591054046 L 407.65059614309195 77.67370782775615 L 407.39431330191604 77.68134160709545 L 407.1378744091378 77.68781648518677 L 406.8813051084328 77.6931318145477 L 406.62463105651733 77.69728706364975 L 406.3678779205827 77.70028181697145 L 406.11107137572856 77.70211577504 L 405.8542371023953 77.70278875446107 L 405.59740078379633 77.70230068793732 L 405.3405881033494 77.70065162427498 L 405.08382474210856 77.69784172837903 L 404.82713637619605 77.69387128123674 L 404.57054867423443 77.68874067988952 L 404.31408729478017 77.68245043739319 L 404.05777788375747 77.6750011827668 L 403.8016460718938 77.66639366092959 L 403.5457174721569 77.65662873262656 L 403.2900176771936 77.64570737434241 L 403.03457225677016 77.63363067820387 L 402.7794067552158 77.6203998518705 L 402.5245466888681 77.60601621841388 L 402.27001754352125 77.59048121618541 L 402.01584477187765 77.57379639867233 L 401.76205379100276 77.5559634343425 L 401.50866997978306 77.53698410647749 L 401.2557186763886 77.51686031299428 L 401.00322517573886 77.49559406625544 L 400.75121472697356 77.47318749286792 L 400.4997125309275 77.44964283347039 L 400.2487437376108 77.42496244250918 L 399.9983334436936 77.3991487880028 L 399.7485066899966 77.3722044512952 L 399.49928845898694 77.3441321267976 L 399.25070367228017 77.31493462171906 L 399.00277718814766 77.28461485578573 L 398.7555337990313 77.25317586094897 L 398.508998229064 77.22062078108203 L 398.26319513159723 77.18695287166581 L 398.0181490867359 77.15217549946317 L 397.7738845988804 77.11629214218235 L 397.5304260942758 77.07930638812917 L 397.2877979185698 77.04122193584823 L 397.0460243343778 77.002042593753 L 396.8051295188567 76.96177227974506 L 396.56513756128726 76.92041502082225 L 396.3260724606653 76.87797495267598 L 396.08795812330163 76.83445631927773 L 395.85081836043156 76.78986347245454 L 395.6146768858338 76.74420087145396 L 395.379557313459 76.69747308249802 L 395.14548315506846 76.64968477832667 L 394.912477817883 76.60084073773052 L 394.68056460224204 76.55094584507293 L 394.44976669927405 76.50000508980158 L 394.2201071885769 76.44802356594954 L 393.9916090359103 76.39500647162588 L 393.7642950908991 76.34095910849587 L 393.5381880847484 76.28588688125075 L 393.31331062797034 76.22979529706737 L 393.0896852081232 76.1726899650574 L 392.86733418756273 76.11457659570647 L 392.64627980120554 76.05546100030305 L 392.42654415430616 75.99534909035746 L 392.20814922024607 75.9342468770106 L 391.9911168383368 75.87216047043285 L 391.77546871163554 75.80909607921315 L 391.56122640477537 75.74506000973807 L 391.3484113418084 75.6800586655612 L 391.1370448040636 75.61409854676278 L 390.92714792801854 75.54718624929971 L 390.718741703186 75.47932846434601 L 390.51184697001474 75.4105319776236 L 390.30648441780573 75.34080366872384 L 390.102674582643 75.2701505104195 L 389.90043784534015 75.19857956796754 L 389.6997944294025 75.12609799840256 L 389.5007643990044 75.05271304982111 L 389.303367656983 74.9784320606569 L 389.10762394284814 74.90326245894695 L 388.91355283080793 74.82721176158879 L 388.72117372781196 74.75028757358876 L 388.5305058716102 74.67249758730159 L 388.34156832882934 74.59384958166106 L 388.15437999306624 74.51435142140221 L 387.9689595829985 74.4340110562748 L 387.7853256405126 74.3528365202484 L 387.60349652884975 74.27083593070897 L 387.42349043076956 74.18801748764713 L 387.2453253467319 74.10438947283818 L 387.0690190930967 74.01996024901389 L 386.8945893003423 73.9347382590263 L 386.7220534113028 73.84873202500339 L 386.5514286794231 73.76195014749688 L 386.3827321670344 73.67440130462221 L 386.21598074364726 73.58609425119072 L 386.0511910842651 73.49703781783415 L 385.8883796677165 73.40724091012163 L 385.72756277500747 73.3167125076691 L 385.56875648769324 73.22546166324135 L 385.4119766862702 73.1334975018468 L 385.25723904858785 73.04082921982494 L 385.104559048281 72.94746608392677 L 384.9539519532225 72.85341743038806 L 384.8054328239963 72.75869266399579 L 384.65901651239153 72.66330125714767 L 384.51471765991744 72.56725274890488 L 384.372550696339 72.4705567440382 L 384.232529838234 72.37322291206758 L 384.0946690875716 72.27526098629505 L 383.9589822303121 72.17668076283158 L 383.82548283502797 72.07749209961737 L 383.69418425154765 71.97770491543608 L 383.56509960962 71.87732918892296 L 383.43824181760164 71.77637495756703 L 383.3136235611661 71.6748523167073 L 383.19125730203507 71.57277141852325 L 383.0711552767326 71.47014247101961 L 382.9533294953611 71.36697573700563 L 382.8377917404006 71.26328153306875 L 382.72455356553013 71.15907022854292 L 382.61362629447297 71.05435224447177 L 382.5050210198637 70.94913805256644 L 382.39874860213934 70.84343817415844 L 382.2948196684531 70.73726317914753 L 382.19324461161165 70.63062368494474 L 382.09403358903614 70.5235303554106 L 381.9971965217461 70.41599389978884 L 381.9027430933676 70.3080250716354 L 381.81068274916464 70.19963466774314 L 381.7210246950951 70.0908335270621 L 381.6337778968895 69.98163252961568 L 381.54895107915513 69.87204259541265 L 381.466552724503 69.76207468335508 L 381.38659107269984 69.65173979014256 L 381.3090741198443 69.54104894917243 L 381.234009617567 69.43001322943658 L 381.1614050722556 69.31864373441445 L 381.0912677443042 69.20695160096271 L 381.0236046473872 69.09494799820165 L 380.95842254775766 68.98264412639821 L 380.8957279635715 68.87005121584596 L 380.83552716423475 68.75718052574217 L 380.7778261697772 68.64404334306175 L 380.7226307502502 68.53065098142872 L 380.6699464251497 68.41701477998473 L 380.61977846286436 68.30314610225523 L 380.5721318801486 68.1890563350131 L 380.5270114416209 68.07475688714001 L 380.48442165928765 67.96025918848548 L 380.44436679209144 67.84557468872397 L 380.4068508454857 67.73071485620987 L 380.3718775710338 67.61569117683074 L 380.33945046603407 67.50051515285864 L 380.30957277317 67.3851983018 L 380.28224748018584 67.26975215524384 L 380.2574773195883 67.15418825770858 L 380.23526476837276 67.0385181654877 L 380.2156120477757 66.92275344549402 L 380.19852112305296 66.80690567410306 L 380.1839937032827 66.69098643599544 L 380.17203124119476 66.57500732299836 L 380.16263493302546 66.45897993292647 L 380.1558057183977 66.34291586842208 L 380.1515442802273 66.22682673579494 L 380.14985104465455 66.11072414386156 L 380.1507261810016 65.99461970278438 L 380.1541696017554 65.87852502291076 L 380.16018096257693 65.76245171361194 L 380.16875966233505 65.64641138212212 L 380.1799048431669 65.53041563237775 L 380.19361539056376 65.41447606385715 L 380.2098899334822 65.29860427042055 L 380.22872684448157 65.18281183915073 L 380.2501242398865 65.06711034919432 L 380.27407997997517 64.95151137060391 L 380.30059166919364 64.83602646318103 L 380.329656656395 64.72066717532017 L 380.36127203510483 64.60544504285399 L 380.3954346438116 64.49037158789972 L 380.4321410662828 64.37545831770696 L 380.47138763190685 64.26071672350696 L 380.51317041605995 64.14615827936355 L 380.5574852404984 64.03179444102564 L 380.6043276737767 63.917636644781794 L 380.65369303169064 63.80369630631649 L 380.7055763777455 63.68998481956863 L 380.7599725236499 63.57651355559212 L 380.8168760298346 63.46329386141881 L 380.8762812059964 63.35033705892376 L 380.9381821116672 63.237654443693096 L 381.002572556808 63.125257283894435 L 381.06944610242795 63.0131568191501 L 381.1387960612282 62.90136425941313 L 381.2106154982707 62.78989078384635 L 381.28489723167155 62.67874753970443 L 381.3616338333194 62.56794564121916 L 381.44081762961787 62.45749616848805 L 381.52244070225345 62.34741016636633 L 381.6064948889869 62.23769864336248 L 381.69297178446953 62.12837257053737 L 381.78186274108384 62.01944288040719 L 381.8731588698083 61.91092046585016 L 381.9668510411061 61.80281617901732 L 382.0629298858382 61.69514083024725 L 382.16138579620014 61.587905186985104 L 382.262208926683 61.48111997270585 L 382.3653891950577 61.37479586584192 L 382.4709162833834 61.2689434987154 L 382.5787796390392 61.16357345647479 L 382.68896847577946 61.05869627603652 L 382.8014717748123 60.954322445031224 L 382.9162782859015 60.85046240075503 L 383.0333765284917 60.74712652912581 L 383.1527547928563 60.644325163644616 L 383.2744011412682 60.54206858436233 L 383.398303409194 60.440367016851674 L 383.52444920651016 60.339230631184634 L 383.652825918742 60.2386695409155 L 383.78342070832537 60.13869380206951 L 383.91622051589013 60.03931341213722 L 384.05121206156616 59.94053830907482 L 384.18838184631136 59.84237837031029 L 384.3277161532616 59.74484341175572 L 384.4692010491023 59.64794318682568 L 384.61282238546175 59.55168738546191 L 384.75856580032604 59.45608563316434 L 384.9064167194751 59.361147490028536 L 385.0563603579402 59.266882449789684 L 385.20838172148257 59.173299938873264 L 385.3624656080924 59.08040931545237 L 385.5185966095095 58.988219868511955 L 385.67675911276376 58.89674081691987 L 385.8369373017368 58.805981308505054 L 385.99911515874305 58.715950419142715 L 386.16327646613206 58.62665715184676 L 386.3294048079099 58.5381104358695 L 386.49748357138077 58.450319125808754 L 386.6674959488084 58.36329200072237 L 386.8394249390967 58.277037763250334 L 387.01325334949 58.19156503874451 L 387.18896379729205 58.10688237440612 L 387.3665387116045 58.022998238431036 L 387.5459603350839 57.93992101916295 L 387.72721072571744 57.85765902425456 L 387.9102717586171 57.776220479836795 L 388.09512512783215 57.695613529696246 L 388.2817523481796 57.61584623446075 L 388.4701347570931 57.53692657079335 L 388.66025351648864 57.45886243059466 L 388.8520896146488 57.38166162021363 L 389.0456238681235 57.30533185966698 L 389.24083692364877 57.229880781867145 L 389.4377092600817 57.155315931859036 L 389.6362211903527 57.08164476606552 L 389.8363528634342 57.008874651541774 L 390.0380842663256 56.93701286523862 L 390.2413952260548 56.866066593274795 L 390.44626541169526 56.79604293021838 L 390.65267433639906 56.726948878377314 L 390.86060135944575 56.658791347099225 L 391.0700256883064 56.591577152080426 L 391.28092638072246 56.525313014684414 L 391.4932823468006 56.4600055612697 L 391.7070723511211 56.39566132252722 L 391.9222750148617 56.332286732827214 L 392.1388688179354 56.26988812957585 L 392.3568321011424 56.20847175258143 L 392.5761430683359 56.14804374343051 L 392.796779788602 56.08861014487363 L 393.01872019845257 56.03017690022111 L 393.2419421040316 55.972749852748734 L 393.4664231833344 55.91633474511339 L 393.69214098844026 55.86093721877882 L 393.9190729477567 55.80656281345151 L 394.1471963682769 55.753216966526665 L 394.37648843784893 55.70090501254454 L 394.60692622745694 55.649632182656916 L 394.8384866935139 55.59940360410408 L 395.07114668016624 55.550224299702016 L 395.3048829216092 55.50209918734018 L 395.53967204441335 55.45503307948971 L 395.7754905698621 55.40903068272217 L 396.01231491629943 55.3640965972389 L 396.25012140148806 55.320235316411 L 396.4888862449776 55.27745122633 L 396.72858557048266 55.23574860536927 L 396.9691954082705 55.19513162375613 L 397.2106916975578 55.15560434315492 L 397.4530502889169 55.11717071626074 L 397.6962469466907 55.07983458640426 L 397.94025735141594 55.04359968716735 L 398.18505710225554 55.00846964200974 L 398.4306217194385 54.974447963906684 L 398.6769266467076 54.941538054997615 L 398.9239472537755 54.90974320624601 L 399.17165883878727 54.87906659711026 L 399.42003663079083 54.849511295225696 L 399.669055792214 54.82108025609789 L 399.9186914213481 54.79377632280706 L 400.16891855483834 54.76760222572378 L 400.41971217017976 54.742560582235946 L 400.6710471882199 54.71865389648704 L 400.92289847566644 54.695884559125716 L 401.17524084760043 54.674254847066734 L 401.428049069995 54.65376692326327 L 401.6812978622385 54.63442283649064 L 401.93496189966294 54.616224521141405 L 402.18901581607577 54.599173797031916 L 402.4434342062971 54.583272369220396 L 402.69819162870004 54.56852182783636 L 402.95326260775454 54.55492364792166 L 403.2086216365753 54.54247918928296 L 403.4642431794722 54.53118969635575 L 403.72010167450395 54.52105629807991 L 403.97617153603426 54.51208000778683 L 404.2324271572905 54.504261723098054 L 404.48884291292393 54.497602225835536 L 404.74539316157274 54.49210218194346 L 405.0020522484258 54.487762141421626 L 405.25879450778837 54.484582538270466 L 405.5155942656485 54.482563690447655 L 405.7724258422443 54.481705799836284 L 406.02926355463217 54.4820089522247 L 406.2860817192549 54.48347311729792 L 406.5428546545101 54.486098148640664 L 406.79955668331814 54.48988378375197 L 407.05616213569016 54.49482964407149 L 407.31264535129463 54.50093523501731 L 407.56898068202383 54.50819994603543 L 407.82514249455824 54.5166230506608 L 408.08110517293005 54.52620370658997 L 408.3368431210848 54.53694095576534 L 408.5923307654408 54.54883372447093 L 408.84754255744645 54.56188082343979 L 409.1024529761352 54.5760809479729 L 409.35703653067776 54.591432678069616 L 409.61126776293065 54.607934478569746 L 409.86512124998256 54.62558469930698 L 410.1185716066964 54.644381575273954 L 410.37159348824764 54.66432322679874 L 410.624161592659 54.685407659732796 L 410.87625066333044 54.70763276565041 L 411.12783549156507 54.7309963220595 L 411.3788909190897 54.75549599262389 L 411.62939184057075 54.78112932739696 L 411.87931320612483 54.80789376306658 L 412.12863002382363 54.83578662321149 L 412.37731736219325 54.86480511856891 L 412.62535035270696 54.89494634731351 L 412.87270419227247 54.9262072953475 L 413.11935414571195 54.95858483660216 L 413.36527554823556 54.99207573335032 L 413.61044380790804 55.02667663653023 L 413.85483440810765 55.0623840860804 L 414.0984229099781 55.09919451128564 L 414.3411849548722 55.13710423113409 L 414.58309626678766 55.17610945468536 L 414.824132654795 55.2162062814496 L 415.0642700154562 55.25739070177756 L 415.30348433523534 55.29965859726151 L 415.5417516928998 55.34300574114714 L 415.7790482619124 55.38742779875617 L 416.0153503128139 55.43292032791987 L 416.25063421559616 55.47947877942322 L 416.48487644206494 55.527098497459875 L 416.7180535681929 55.57577472009772 L 416.95014227646163 55.62550257975505 L 417.18111935819377 55.67627710368733 L 417.4109617158736 55.728093214484495 L 417.63964636545694 55.78094573057864 L 417.86715043866934 55.83482936676219 L 418.0934511852931 55.88973873471644 L 418.31852597544207 55.945668343550345 L 418.54235230182485 56.002612600349636 L 418.76490778199536 56.06056581073608 L 418.98617016059103 56.11952217943694 L 419.20611731155833 56.179475810864474 L 419.4247272403655 56.24042070970549 L 419.6419780862018 56.30235078152091 L 419.85784812416375 56.36525983335514 L 420.07231576742737 56.42914157435544 L 420.2853595694071 56.49398961640093 L 420.49695822590024 56.55979747474145 L 420.7070905772175 56.62655856864601 L 420.9157356102989 56.69426622206085 L 421.12287246081496 56.76291366427705 L 421.32848041525324 56.83249403060759 L 421.5325389129896 56.903000363073836 L 421.73502754834436 56.97442561110128 L 421.93592607262275 57.04676263222465 L 422.1352143961397 57.120004192802114 L 422.33287259022893 57.19414296873864 L 422.5288808892358 57.26917154621842 L 422.7232196924937 57.34508242244624 L 422.9158695662843 57.421868006397716 L 423.1068112457807 57.49952061957846 L 423.29602563697415 57.57803249679186 L 423.48349381858316 57.657395786915615 L 423.66919704394576 57.73760255368685 L 423.8531167428942 57.81864477649573 L 424.03523452361185 57.9005143511875 L 424.2155321744724 57.983203090872934 L 424.39399166586105 58.06670272674695 L 424.5705951519773 58.15100490891555 L 424.74532497261976 58.23610120723078 L 424.91816365495197 58.32198311213371 L 425.0890939152497 58.40864203550541 L 425.2580986606294 58.49606931152578 L 425.4251609907573 58.58425619754006 L 425.5902641995397 58.67319387493313 L 425.7533917767933 58.76287345001139 L 425.91452740989627 58.853285954892044 L 426.0736549854195 58.944422348399954 L 426.2307585907382 59.03627351697172 L 426.3858225156227 59.12883027556701 L 426.5388312538097 59.222083368587114 L 426.6897695045529 59.31602347080043 L 426.838622174153 59.41064118827504 L 426.9853743774671 59.50592705931801 L 427.1300114393972 59.60187155542167 L 427.27251889635755 59.698465082216345 L 427.4128824977213 59.79569798042986 L 427.5510882072452 59.89356052685341 L 427.6871222044735 59.99204293531392 L 427.8209708861198 60.0911353576526 L 427.95262086742764 60.1908278847098 L 428.08205898350843 60.29111054731588 L 428.2092722906584 60.39197331728817 L 428.33424806765305 60.4934061084337 L 428.4569738170186 60.5953987775579 L 428.5774372662825 60.69794112547884 L 428.6956263692002 60.80102289804719 L 428.8115293069599 60.90463378717158 L 428.92513448936444 61.00876343184945 L 429.0364305559902 61.113401419203115 L 429.14540637732324 61.218537285521016 L 429.25205105587224 61.32416051730415 L 429.3563539272583 61.43026055231736 L 429.4583045612811 61.53682678064554 L 429.5578927629623 61.643848545754686 L 429.6551085735647 61.75131514555746 L 429.7499422715881 61.85921583348345 L 429.84238437374194 61.96753981955375 L 429.9324256358929 62.07627627146005 L 430.0200570539899 62.18541431564777 L 430.10526986496404 62.29494303840343 L 430.1880555476053 62.404851486946036 L 430.2684058234144 62.515128670522316 L 430.34631265743076 62.62576356150581 L 430.42176825903584 62.736745096499625 L 430.49476508273233 62.84806217744274 L 430.56529582889874 62.959703672719826 L 430.63335344451923 63.07165841827438 L 430.698931123889 63.18391521872516 L 430.76202230929465 63.29646284848565 L 430.8226206916703 63.409290052886675 L 430.88072021122815 63.52238554930181 L 430.93631505806474 63.63573802827567 L 430.9893996727416 63.7493361546548 L 431.0399687468416 63.86316856872124 L 431.0880172234995 63.97722388732845 L 431.13354029790753 64.09149070503959 L 431.1765334177963 64.20595759526815 L 431.2169922838896 64.32061311142046 L 431.25491285033456 64.43544578804045 L 431.2902913251061 64.55044414195618 L 431.32312417038634 64.66559667342807 L 431.35340810291797 64.78089186729893 L 431.38114009433303 64.89631819414548 L 431.4063173714555 65.0118641114312 L 431.4289374165786 65.12751806466063 L 431.44899796771676 65.24326848853487 L 431.4664970188315 65.35910380810796 L 431.4814328200323 65.47501243994449 L 431.49380387775153 65.59098279327785 L 431.5036089548937 65.70700327116936 L 431.51084707095924 65.8230622716679 L 431.51551750214264 65.93914818897015 L 431.5176197814046 66.05524941458111 M 431.5177500783881 103.0349230918 L 431.51646589079945 103.15102675555636 L 431.5126134564514 103.2671188090431 L 431.5061931605841 103.3831876431516 L 431.49720564522175 103.4992216510952 L 431.48565180910845 103.61520922956979 L 431.4715328076182 103.73113877991415 L 431.4548500526393 103.8469987092699 L 431.43560521243336 103.9627774317406 L 431.41380021146847 104.07846336955055 L 431.3894372302264 104.19404495420231 L 431.3625187049851 104.30951062763378 L 431.33304732757466 104.42484884337381 L 431.30102604510813 104.54004806769696 L 431.26645805968724 104.65509678077679 L 431.2293468280816 104.76998347783784 L 431.1896960613835 104.88469667030618 L 431.1475097246365 104.99922488695815 L 431.10279203643927 105.1135566750675 L 431.0555474685232 105.22768060155073 L 431.0057807453058 105.34158525411026 L 430.9534968434179 105.45525924237577 L 430.89870099120617 105.56869119904317 L 430.84139866821005 105.68186978101132 L 430.7815956046142 105.79478367051632 L 430.71929778067505 105.90742157626333 L 430.6545114261232 106.01977223455563 L 430.58724301954 106.13182441042103 L 430.5174992877101 106.2435668987353 L 430.4452872049486 106.35498852534273 L 430.37061399240355 106.46607814817354 L 430.29348711733394 106.57682465835798 L 430.2139142923631 106.68721698133734 L 430.13190347470714 106.79724407797133 L 430.04746286537954 106.90689494564195 L 429.96060090837085 107.01615861935382 L 429.87132628980436 107.12502417283062 L 429.7796479370675 107.23348071960771 L 429.68557501791923 107.34151741412083 L 429.58911693957305 107.44912345279052 L 429.4902833477564 107.5562880751026 L 429.3890841257461 107.66300056468414 L 429.28552939338 107.76925025037511 L 429.17962950604505 107.87502650729549 L 429.0713950536417 107.98031875790771 L 428.9608368595251 108.08511647307448 L 428.84796597942244 108.1894091731116 L 428.7327937003277 108.29318642883598 L 428.6153315393728 108.39643786260854 L 428.49559124267597 108.49915314937192 L 428.37358478416706 108.60132201768305 L 428.24932436439036 108.70293425074024 L 428.12282240928414 108.80397968740488 L 427.9940915689386 108.90444822321749 L 427.86314471633045 109.0043298114082 L 427.72999494603584 109.10361446390144 L 427.59465557292083 109.20229225231469 L 427.45714013081 109.30035330895136 L 427.31746237113293 109.39778782778748 L 427.1756362615492 109.49458606545237 L 427.03167598455155 109.59073834220294 L 426.8855959360477 109.68623504289161 L 426.73741072392085 109.78106661792793 L 426.58713516656866 109.87522358423341 L 426.4347842914217 109.96869652618986 L 426.2803733334404 110.061476096581 L 426.123917733592 110.15355301752712 L 425.9654331373061 110.24491808141282 L 425.8049353929102 110.33556215180788 L 425.642440550045 110.42547616438078 L 425.4779648580594 110.5146511278052 L 425.3115247643855 110.60307812465909 L 425.1431369128941 110.69074831231649 L 424.9728181422298 110.77765292383165 L 424.80058548412796 110.86378326881588 L 424.6264561617107 110.94913073430642 L 424.4504475877652 111.03368678562788 L 424.27257736300226 111.11744296724555 L 424.092863274296 111.2003909036111 L 423.91132329290565 111.2825223 L 423.727975572678 111.36382894334106 L 423.5428384482323 111.44430270303769 L 423.3559304331267 111.52393553178099 L 423.167270218007 111.60271946635444 L 422.9768766687374 111.68064662843025 L 422.7847688245143 111.75770922535715 L 422.59096589596186 111.83389955093965 L 422.39548726321163 111.9092099862087 L 422.19835247396384 111.9836330001835 L 421.9995812415332 112.05716115062472 L 421.7991934428773 112.12978708477856 L 421.597209116609 112.20150354011211 L 421.39364846099267 112.27230334503965 L 421.18853183192414 112.34217941963963 L 420.98187974089547 112.41112477636287 L 420.7737128529435 112.47913252073111 L 420.56405198458356 112.54619585202661 L 420.3529181017278 112.61230806397214 L 420.14033231758856 112.67746254540155 L 419.9263158905671 112.74165278092104 L 419.71089022212766 112.80487235156053 L 419.49407685465775 112.86711493541566 L 419.27589746931335 112.92837430827987 L 419.05637388385117 112.98864434426694 L 418.8355280504468 113.04791901642352 L 418.6133820534996 113.10619239733178 L 418.3899581074241 113.16345865970217 L 418.16527855442877 113.21971207695618 L 417.93936586228165 113.27494702379899 L 417.7122426220636 113.32915797678191 L 417.48393154590957 113.38233951485485 L 417.2544554647368 113.43448631990829 L 417.0238373259622 113.48559317730519 L 416.7921001912074 113.53565497640241 L 416.55926723399284 113.58466671106174 L 416.3253617374202 113.63262348015058 L 416.0904070918442 113.67952048803197 L 415.8544267925336 113.7253530450442 L 415.61744443732175 113.77011656796977 L 415.37948372424654 113.81380658049369 L 415.14056844918116 113.85641871365111 L 414.9007225034539 113.89794870626423 L 414.65996987145945 113.93839240536839 L 414.4183346282604 113.9777457666274 L 414.1758409371798 114.0160048547379 L 413.9325130473846 114.05316584382298 L 413.688375291461 114.0892250178147 L 413.4434520829812 114.12417877082571 L 413.19776791406184 114.15802360750982 L 412.9513473529152 114.19075614341159 L 412.704215041392 114.2223731053047 L 412.4563956925174 114.25287133151929 L 412.20791408801983 114.28224777225817 L 411.95879507585266 114.31049948990176 L 411.7090635677095 114.3376236593018 L 411.45874453653306 114.36361756806399 L 411.20786301401785 114.38847861681909 L 410.95644408810705 114.41220431948295 L 410.70451290048373 114.43479230350509 L 410.4520946440568 114.45624031010593 L 410.1992145604414 114.47654619450265 L 409.9458979374353 114.49570792612376 L 409.6921701064896 114.51372358881206 L 409.438056440176 114.5305913810163 L 409.1835823496494 114.5463096159713 L 408.92877328210676 114.56087672186668 L 408.6736547182425 114.57429124200398 L 408.4182521697004 114.58655183494237 L 408.1625911765225 114.59765727463277 L 407.906697304595 114.60760645054046 L 407.65059614309195 114.61639836775615 L 407.39431330191604 114.62403214709545 L 407.1378744091378 114.63050702518677 L 406.8813051084328 114.6358223545477 L 406.62463105651733 114.63997760364975 L 406.3678779205827 114.64297235697146 L 406.11107137572856 114.64480631504 L 405.8542371023953 114.64547929446107 L 405.59740078379633 114.64499122793733 L 405.3405881033494 114.64334216427498 L 405.08382474210856 114.64053226837903 L 404.82713637619605 114.63656182123674 L 404.57054867423443 114.63143121988952 L 404.31408729478017 114.62514097739319 L 404.05777788375747 114.6176917227668 L 403.8016460718938 114.60908420092959 L 403.5457174721569 114.59931927262656 L 403.2900176771936 114.58839791434241 L 403.03457225677016 114.57632121820387 L 402.7794067552158 114.5630903918705 L 402.5245466888681 114.54870675841389 L 402.27001754352125 114.53317175618541 L 402.01584477187765 114.51648693867233 L 401.76205379100276 114.4986539743425 L 401.50866997978306 114.47967464647749 L 401.2557186763886 114.45955085299428 L 401.00322517573886 114.43828460625544 L 400.75121472697356 114.41587803286792 L 400.4997125309275 114.3923333734704 L 400.2487437376108 114.36765298250918 L 399.9983334436936 114.3418393280028 L 399.7485066899966 114.3148949912952 L 399.49928845898694 114.2868226667976 L 399.25070367228017 114.25762516171906 L 399.00277718814766 114.22730539578573 L 398.7555337990313 114.19586640094897 L 398.508998229064 114.16331132108203 L 398.26319513159723 114.12964341166581 L 398.0181490867359 114.09486603946317 L 397.7738845988804 114.05898268218235 L 397.5304260942758 114.02199692812917 L 397.2877979185698 113.98391247584823 L 397.0460243343778 113.944733133753 L 396.8051295188567 113.90446281974506 L 396.56513756128726 113.86310556082225 L 396.3260724606653 113.82066549267599 L 396.08795812330163 113.77714685927774 L 395.85081836043156 113.73255401245454 L 395.6146768858338 113.68689141145396 L 395.379557313459 113.64016362249802 L 395.14548315506846 113.59237531832667 L 394.912477817883 113.54353127773052 L 394.68056460224204 113.49363638507293 L 394.44976669927405 113.44269562980158 L 394.2201071885769 113.39071410594954 L 393.9916090359103 113.33769701162588 L 393.7642950908991 113.28364964849587 L 393.5381880847484 113.22857742125075 L 393.31331062797034 113.17248583706737 L 393.0896852081232 113.1153805050574 L 392.86733418756273 113.05726713570647 L 392.64627980120554 112.99815154030306 L 392.42654415430616 112.93803963035747 L 392.20814922024607 112.8769374170106 L 391.9911168383368 112.81485101043285 L 391.77546871163554 112.75178661921315 L 391.56122640477537 112.68775054973807 L 391.3484113418084 112.6227492055612 L 391.1370448040636 112.55678908676278 L 390.92714792801854 112.48987678929971 L 390.718741703186 112.42201900434601 L 390.51184697001474 112.3532225176236 L 390.30648441780573 112.28349420872384 L 390.102674582643 112.2128410504195 L 389.90043784534015 112.14127010796754 L 389.6997944294025 112.06878853840256 L 389.5007643990044 111.99540358982111 L 389.303367656983 111.9211226006569 L 389.10762394284814 111.84595299894696 L 388.91355283080793 111.76990230158879 L 388.72117372781196 111.69297811358877 L 388.5305058716102 111.6151881273016 L 388.34156832882934 111.53654012166106 L 388.15437999306624 111.45704196140221 L 387.9689595829985 111.3767015962748 L 387.7853256405126 111.2955270602484 L 387.60349652884975 111.21352647070897 L 387.42349043076956 111.13070802764713 L 387.2453253467319 111.04708001283818 L 387.0690190930967 110.96265078901389 L 386.8945893003423 110.8774287990263 L 386.7220534113028 110.79142256500339 L 386.5514286794231 110.70464068749688 L 386.3827321670344 110.61709184462221 L 386.21598074364726 110.52878479119072 L 386.0511910842651 110.43972835783416 L 385.8883796677165 110.34993145012163 L 385.72756277500747 110.2594030476691 L 385.56875648769324 110.16815220324135 L 385.4119766862702 110.0761880418468 L 385.25723904858785 109.98351975982494 L 385.104559048281 109.89015662392677 L 384.9539519532225 109.79610797038806 L 384.8054328239963 109.70138320399579 L 384.65901651239153 109.60599179714767 L 384.51471765991744 109.50994328890488 L 384.372550696339 109.4132472840382 L 384.232529838234 109.31591345206758 L 384.0946690875716 109.21795152629505 L 383.9589822303121 109.11937130283158 L 383.82548283502797 109.02018263961737 L 383.69418425154765 108.92039545543608 L 383.56509960962 108.82001972892296 L 383.43824181760164 108.71906549756703 L 383.3136235611661 108.6175428567073 L 383.19125730203507 108.51546195852325 L 383.0711552767326 108.41283301101961 L 382.9533294953611 108.30966627700563 L 382.8377917404006 108.20597207306875 L 382.72455356553013 108.10176076854292 L 382.61362629447297 107.99704278447177 L 382.5050210198637 107.89182859256644 L 382.39874860213934 107.78612871415844 L 382.2948196684531 107.67995371914753 L 382.19324461161165 107.57331422494474 L 382.09403358903614 107.4662208954106 L 381.9971965217461 107.35868443978885 L 381.9027430933676 107.2507156116354 L 381.81068274916464 107.14232520774314 L 381.7210246950951 107.0335240670621 L 381.6337778968895 106.92432306961568 L 381.54895107915513 106.81473313541265 L 381.466552724503 106.70476522335508 L 381.38659107269984 106.59443033014256 L 381.3090741198443 106.48373948917244 L 381.234009617567 106.37270376943658 L 381.1614050722556 106.26133427441445 L 381.0912677443042 106.14964214096271 L 381.0236046473872 106.03763853820165 L 380.95842254775766 105.92533466639821 L 380.8957279635715 105.81274175584596 L 380.83552716423475 105.69987106574217 L 380.7778261697772 105.58673388306175 L 380.7226307502502 105.47334152142872 L 380.6699464251497 105.35970531998473 L 380.61977846286436 105.24583664225523 L 380.5721318801486 105.1317468750131 L 380.5270114416209 105.01744742714001 L 380.48442165928765 104.90294972848548 L 380.44436679209144 104.78826522872397 L 380.4068508454857 104.67340539620987 L 380.3718775710338 104.55838171683074 L 380.33945046603407 104.44320569285864 L 380.30957277317 104.3278888418 L 380.28224748018584 104.21244269524384 L 380.2574773195883 104.09687879770858 L 380.23526476837276 103.9812087054877 L 380.2156120477757 103.86544398549403 L 380.19852112305296 103.74959621410306 L 380.1839937032827 103.63367697599544 L 380.17203124119476 103.51769786299836 L 380.16263493302546 103.40167047292647 L 380.1558057183977 103.28560640842208 L 380.1515442802273 103.16951727579495 L 380.14985104465455 103.05341468386156" stroke-miterlimit="10" stroke-width="2.990598758" stroke-dasharray=""/></g><g><g/><text fill="black" stroke="none" font-family="sans-serif" font-size="11pt" font-style="normal" font-weight="normal" text-decoration="normal" x="374.4638273041732" y="133.521438666" text-anchor="start" dominant-baseline="alphabetic" xml:space="preserve">Database</text></g></g><g><path fill="white" stroke="black" paint-order="fill stroke markers" d=" M 241.31252032744794 545.1685618259999 L 258.90427772744795 545.1685618259999 L 258.90427772744795 787.9348139459998 L 241.31252032744794 787.9348139459998 L 241.31252032744794 545.1685618259999" stroke-miterlimit="10" stroke-width="1.4659797833333332" stroke-dasharray=""/><path fill="white" stroke="black" paint-order="fill stroke markers" d=" M 250.10839902744794 617.2947671659998 L 267.70015642744795 617.2947671659998 L 267.70015642744795 787.9348139459998 L 250.10839902744794 787.9348139459998 L 250.10839902744794 617.2947671659998" stroke-miterlimit="10" stroke-width="1.4659797833333332" stroke-dasharray=""/><path fill="white" stroke="black" paint-order="fill stroke markers" d=" M 83.93401313226563 904.0404127859998 L 101.52577053226564 904.0404127859998 L 101.52577053226564 1097.5497441859998 L 83.93401313226563 1097.5497441859998 L 83.93401313226563 904.0404127859998" stroke-miterlimit="10" stroke-width="1.4659797833333332" stroke-dasharray=""/><path fill="white" stroke="black" paint-order="fill stroke markers" d=" M 35.51846943613282 173.98248068599997 L 134.10873256839847 173.98248068599997 L 149.94131422839845 189.81506234599996 L 149.94131422839845 214.44352270599998 L 35.51846943613282 214.44352270599998 L 35.51846943613282 173.98248068599997 M 134.10873256839847 173.98248068599997 L 134.10873256839847 189.81506234599996 L 149.94131422839845 189.81506234599996" stroke-miterlimit="10" stroke-width="1.4659797833333332" stroke-dasharray=""/><g><text fill="black" stroke="none" font-family="sans-serif" font-size="11pt" font-style="normal" font-weight="normal" text-decoration="normal" x="60.146929796132824" y="198.61094104600002" text-anchor="start" dominant-baseline="alphabetic" xml:space="preserve">Every 10s</text></g><g><g><rect fill="white" stroke="none" x="122.34268345559896" y="240.831158806" width="98.15292394851562" height="22.86928462"/></g><text fill="black" stroke="none" font-family="sans-serif" font-size="11pt" font-style="normal" font-weight="normal" text-decoration="normal" x="124.98144706559896" y="256.663740466" text-anchor="start" dominant-baseline="alphabetic" xml:space="preserve">IsSubscribed?</text></g><g><path fill="none" stroke="black" paint-order="fill stroke markers" d=" M 92.72989183226564 263.700443426 L 235.62451876811463 263.700443426" stroke-miterlimit="10" stroke-width="1.4659797833333332" stroke-dasharray=""/><g transform="translate(250.10839902744794,263.700443426) translate(-250.10839902744794,-263.700443426)"><path fill="black" stroke="none" paint-order="stroke fill markers" d=" M 235.44860119411462 256.37054450933334 L 250.10839902744794 263.700443426 L 235.44860119411462 271.03034234266664 Z"/></g></g><g><g><rect fill="white" stroke="none" x="135.78235020364582" y="290.088079526" width="71.27359045242187" height="22.86928462"/></g><text fill="black" stroke="none" font-family="sans-serif" font-size="11pt" font-style="normal" font-weight="normal" text-decoration="normal" x="138.42111381364583" y="305.920661186" text-anchor="start" dominant-baseline="alphabetic" xml:space="preserve">Response</text></g><g><path fill="none" stroke="black" paint-order="fill stroke markers" d=" M 250.10839902744794 312.957364146 L 107.21377209159897 312.957364146" stroke-miterlimit="10" stroke-width="1.4659797833333332" stroke-dasharray="7.0367029599999995"/><g transform="translate(92.72989183226564,312.957364146) translate(-92.72989183226564,-312.957364146)"><path fill="black" stroke="none" paint-order="stroke fill markers" d=" M 107.38968966559897 305.6274652293333 L 92.72989183226564 312.957364146 L 107.38968966559897 320.2872630626666 Z"/></g></g><path fill="white" stroke="black" paint-order="fill stroke markers" d=" M 17.591757400000002 339.345000246 L 152.03544460453128 339.345000246 L 167.86802626453127 355.177581906 L 167.86802626453127 379.80604226599996 L 17.591757400000002 379.80604226599996 L 17.591757400000002 339.345000246 M 152.03544460453128 339.345000246 L 152.03544460453128 355.177581906 L 167.86802626453127 355.177581906" stroke-miterlimit="10" stroke-width="1.4659797833333332" stroke-dasharray=""/><g><text fill="black" stroke="none" font-family="sans-serif" font-size="11pt" font-style="normal" font-weight="normal" text-decoration="normal" x="42.22021776000001" y="363.97346060599995" text-anchor="start" dominant-baseline="alphabetic" xml:space="preserve">Subscribe if not</text></g><g><g><rect fill="white" stroke="none" x="136.1938415976888" y="406.193678366" width="70.45060766433593" height="22.86928462"/></g><text fill="black" stroke="none" font-family="sans-serif" font-size="11pt" font-style="normal" font-weight="normal" text-decoration="normal" x="138.8326052076888" y="422.026260026" text-anchor="start" dominant-baseline="alphabetic" xml:space="preserve">Subscribe</text></g><g><path fill="none" stroke="black" paint-order="fill stroke markers" d=" M 92.72989183226564 429.06296298599995 L 235.62451876811463 429.06296298599995" stroke-miterlimit="10" stroke-width="1.4659797833333332" stroke-dasharray=""/><g transform="translate(250.10839902744794,429.06296298599995) translate(-250.10839902744794,-429.06296298599995)"><path fill="black" stroke="none" paint-order="stroke fill markers" d=" M 235.44860119411462 421.7330640693333 L 250.10839902744794 429.06296298599995 L 235.44860119411462 436.3928619026666 Z"/></g></g><g><g><rect fill="white" stroke="none" x="158.1925293418294" y="455.45059908599995" width="26.453232176054687" height="22.86928462"/></g><text fill="black" stroke="none" font-family="sans-serif" font-size="11pt" font-style="normal" font-weight="normal" text-decoration="normal" x="160.83129295182943" y="471.28318074599997" text-anchor="start" dominant-baseline="alphabetic" xml:space="preserve">OK</text></g><g><path fill="none" stroke="black" paint-order="fill stroke markers" d=" M 250.10839902744794 478.3198837059999 L 107.21377209159897 478.3198837059999" stroke-miterlimit="10" stroke-width="1.4659797833333332" stroke-dasharray="7.0367029599999995"/><g transform="translate(92.72989183226564,478.3198837059999) translate(-92.72989183226564,-478.3198837059999)"><path fill="black" stroke="none" paint-order="stroke fill markers" d=" M 107.38968966559897 470.9899847893333 L 92.72989183226564 478.3198837059999 L 107.38968966559897 485.6497826226666 Z"/></g></g><path fill="white" stroke="black" paint-order="fill stroke markers" d=" M 172.9414331132487 504.7075198059999 L 311.4427832816471 504.7075198059999 L 327.2753649416471 520.5401014659999 L 327.2753649416471 545.1685618259999 L 172.9414331132487 545.1685618259999 L 172.9414331132487 504.7075198059999 M 311.4427832816471 504.7075198059999 L 311.4427832816471 520.5401014659999 L 327.2753649416471 520.5401014659999" stroke-miterlimit="10" stroke-width="1.4659797833333332" stroke-dasharray=""/><g><text fill="black" stroke="none" font-family="sans-serif" font-size="11pt" font-style="normal" font-weight="normal" text-decoration="normal" x="197.56989347324873" y="529.3359801659999" text-anchor="start" dominant-baseline="alphabetic" xml:space="preserve">At some interval</text></g><g><g><rect fill="white" stroke="none" x="288.5170693507813" y="571.5561979259999" width="68.80464208816406" height="22.86928462"/></g><text fill="black" stroke="none" font-family="sans-serif" font-size="11pt" font-style="normal" font-weight="normal" text-decoration="normal" x="291.1558329607813" y="587.3887795859998" text-anchor="start" dominant-baseline="alphabetic" xml:space="preserve">for allDBs</text></g><g><path fill="none" stroke="black" paint-order="fill stroke markers" d=" M 258.90427772744795 594.4254825459998 L 338.067186027448 594.4254825459998 L 338.067186027448 617.2947671659998 L 282.18403668678127 617.2947671659998" stroke-miterlimit="10" stroke-width="1.4659797833333332" stroke-dasharray=""/><g transform="translate(267.70015642744795,617.2947671659998) translate(-267.70015642744795,-617.2947671659998)"><path fill="black" stroke="none" paint-order="stroke fill markers" d=" M 282.3599542607813 609.9648682493331 L 267.70015642744795 617.2947671659998 L 282.3599542607813 624.6246660826665 Z"/></g></g><g><g><rect fill="white" stroke="none" x="288.51706935078124" y="643.6824032659998" width="96.49980200027343" height="22.86928462"/></g><text fill="black" stroke="none" font-family="sans-serif" font-size="11pt" font-style="normal" font-weight="normal" text-decoration="normal" x="291.15583296078125" y="659.5149849259998" text-anchor="start" dominant-baseline="alphabetic" xml:space="preserve">Get Programs</text></g><g><path fill="none" stroke="black" paint-order="fill stroke markers" d=" M 267.70015642744795 666.5516878859999 L 391.34990401505473 666.5516878859999" stroke-miterlimit="10" stroke-width="1.4659797833333332" stroke-dasharray=""/><g transform="translate(405.83378427438805,666.5516878859999) translate(-405.83378427438805,-666.5516878859999)"><path fill="black" stroke="none" paint-order="stroke fill markers" d=" M 391.1739864410547 659.2217889693331 L 405.83378427438805 666.5516878859999 L 391.1739864410547 673.8815868026666 Z"/></g></g><g><g><rect fill="white" stroke="none" x="301.130175124707" y="692.9393239859999" width="71.27359045242187" height="22.86928462"/></g><text fill="black" stroke="none" font-family="sans-serif" font-size="11pt" font-style="normal" font-weight="normal" text-decoration="normal" x="303.76893873470704" y="708.7719056459998" text-anchor="start" dominant-baseline="alphabetic" xml:space="preserve">Response</text></g><g><path fill="none" stroke="black" paint-order="fill stroke markers" d=" M 405.83378427438805 715.8086086059999 L 282.18403668678127 715.8086086059999" stroke-miterlimit="10" stroke-width="1.4659797833333332" stroke-dasharray="7.0367029599999995"/><g transform="translate(267.70015642744795,715.8086086059999) translate(-267.70015642744795,-715.8086086059999)"><path fill="black" stroke="none" paint-order="stroke fill markers" d=" M 282.3599542607813 708.4787096893332 L 267.70015642744795 715.8086086059999 L 282.3599542607813 723.1385075226666 Z"/></g></g><g><g><rect fill="white" stroke="none" x="288.5170693507813" y="742.1962447059999" width="101.6450809309375" height="22.86928462"/></g><text fill="black" stroke="none" font-family="sans-serif" font-size="11pt" font-style="normal" font-weight="normal" text-decoration="normal" x="291.1558329607813" y="758.0288263659999" text-anchor="start" dominant-baseline="alphabetic" xml:space="preserve">Track Program</text></g><g><path fill="none" stroke="black" paint-order="fill stroke markers" d=" M 267.70015642744795 765.0655293259998 L 338.067186027448 765.0655293259998 L 338.067186027448 787.9348139459998 L 282.18403668678127 787.9348139459998" stroke-miterlimit="10" stroke-width="1.4659797833333332" stroke-dasharray=""/><g transform="translate(267.70015642744795,787.9348139459998) translate(-267.70015642744795,-787.9348139459998)"><path fill="black" stroke="none" paint-order="stroke fill markers" d=" M 282.3599542607813 780.6049150293331 L 267.70015642744795 787.9348139459998 L 282.3599542607813 795.2647128626666 Z"/></g></g><path fill="white" stroke="black" paint-order="fill stroke markers" d=" M 146.4664346391276 814.3224500459997 L 337.9177817557682 814.3224500459997 L 353.7503634157682 830.1550317059997 L 353.7503634157682 854.7834920659998 L 146.4664346391276 854.7834920659998 L 146.4664346391276 814.3224500459997 M 337.9177817557682 814.3224500459997 L 337.9177817557682 830.1550317059997 L 353.7503634157682 830.1550317059997" stroke-miterlimit="10" stroke-width="1.4659797833333332" stroke-dasharray=""/><g><text fill="black" stroke="none" font-family="sans-serif" font-size="11pt" font-style="normal" font-weight="normal" text-decoration="normal" x="171.09489499912763" y="838.9509104059998" text-anchor="start" dominant-baseline="alphabetic" xml:space="preserve">When Program shall run</text></g><g><g><rect fill="white" stroke="none" x="146.7071145048177" y="881.1711281659998" width="58.21994055007812" height="22.86928462"/></g><text fill="black" stroke="none" font-family="sans-serif" font-size="11pt" font-style="normal" font-weight="normal" text-decoration="normal" x="149.3458781148177" y="897.0037098259997" text-anchor="start" dominant-baseline="alphabetic" xml:space="preserve">Do Task</text></g><g><path fill="none" stroke="black" paint-order="fill stroke markers" d=" M 250.10839902744794 904.0404127859998 L 116.00965079159897 904.0404127859998" stroke-miterlimit="10" stroke-width="1.4659797833333332" stroke-dasharray=""/><g transform="translate(101.52577053226564,904.0404127859998) translate(-101.52577053226564,-904.0404127859998)"><path fill="black" stroke="none" paint-order="stroke fill markers" d=" M 116.18556836559897 896.7105138693331 L 101.52577053226564 904.0404127859998 L 116.18556836559897 911.3703117026665 Z"/></g></g><g><g><rect fill="white" stroke="none" x="122.34268345559897" y="930.4280488859998" width="59.036194212187496" height="22.86928462"/></g><text fill="black" stroke="none" font-family="sans-serif" font-size="11pt" font-style="normal" font-weight="normal" text-decoration="normal" x="124.98144706559897" y="946.2606305459998" text-anchor="start" dominant-baseline="alphabetic" xml:space="preserve">Compile</text></g><g><path fill="none" stroke="black" paint-order="fill stroke markers" d=" M 101.52577053226564 953.2973335059997 L 171.89280013226562 953.2973335059997 L 171.89280013226562 976.1666181259998 L 116.00965079159897 976.1666181259998" stroke-miterlimit="10" stroke-width="1.4659797833333332" stroke-dasharray=""/><g transform="translate(101.52577053226564,976.1666181259998) translate(-101.52577053226564,-976.1666181259998)"><path fill="black" stroke="none" paint-order="stroke fill markers" d=" M 116.18556836559897 968.8367192093331 L 101.52577053226564 976.1666181259998 L 116.18556836559897 983.4965170426665 Z"/></g></g><g><g><rect fill="white" stroke="none" x="122.34268345559897" y="1002.5542542259999" width="58.234680540312496" height="22.86928462"/></g><text fill="black" stroke="none" font-family="sans-serif" font-size="11pt" font-style="normal" font-weight="normal" text-decoration="normal" x="124.98144706559897" y="1018.3868358859999" text-anchor="start" dominant-baseline="alphabetic" xml:space="preserve">Execute</text></g><g><path fill="none" stroke="black" paint-order="fill stroke markers" d=" M 101.52577053226564 1025.423538846 L 171.89280013226562 1025.423538846 L 171.89280013226562 1048.2928234659998 L 116.00965079159897 1048.2928234659998" stroke-miterlimit="10" stroke-width="1.4659797833333332" stroke-dasharray=""/><g transform="translate(101.52577053226564,1048.2928234659998) translate(-101.52577053226564,-1048.2928234659998)"><path fill="black" stroke="none" paint-order="stroke fill markers" d=" M 116.18556836559897 1040.9629245493331 L 101.52577053226564 1048.2928234659998 L 116.18556836559897 1055.6227223826666 Z"/></g></g><g><g><rect fill="white" stroke="none" x="140.18028955364582" y="1074.6804595659999" width="71.27359045242187" height="22.86928462"/></g><text fill="black" stroke="none" font-family="sans-serif" font-size="11pt" font-style="normal" font-weight="normal" text-decoration="normal" x="142.81905316364583" y="1090.5130412259998" text-anchor="start" dominant-baseline="alphabetic" xml:space="preserve">Response</text></g><g><path fill="none" stroke="black" paint-order="fill stroke markers" d=" M 101.52577053226564 1097.5497441859998 L 235.62451876811463 1097.5497441859998" stroke-miterlimit="10" stroke-width="1.4659797833333332" stroke-dasharray="7.0367029599999995"/><g transform="translate(250.10839902744794,1097.5497441859998) translate(-250.10839902744794,-1097.5497441859998)"><path fill="black" stroke="none" paint-order="stroke fill markers" d=" M 235.44860119411462 1090.219845269333 L 250.10839902744794 1097.5497441859998 L 235.44860119411462 1104.8796431026665 Z"/></g></g></g><g/><g/><g/></g></svg>