<?xml version="1.0" encoding="UTF-8" standalone="no"?>
<!-- Created with Inkscape (http://www.inkscape.org/) -->

<svg
   xmlns:dc="http://purl.org/dc/elements/1.1/"
   xmlns:cc="http://creativecommons.org/ns#"
   xmlns:rdf="http://www.w3.org/1999/02/22-rdf-syntax-ns#"
   xmlns:svg="http://www.w3.org/2000/svg"
   xmlns="http://www.w3.org/2000/svg"
   xmlns:sodipodi="http://sodipodi.sourceforge.net/DTD/sodipodi-0.dtd"
   xmlns:inkscape="http://www.inkscape.org/namespaces/inkscape"
   width="400"
   height="400"
   viewBox="0 0 105.83333 105.83334"
   version="1.1"
   id="svg8"
   inkscape:version="0.92.4 (5da689c313, 2019-01-14)"
   sodipodi:docname="logo.svg">
  <defs
     id="defs2" />
  <sodipodi:namedview
     id="base"
     pagecolor="#ffffff"
     bordercolor="#666666"
     borderopacity="1.0"
     inkscape:pageopacity="0.0"
     inkscape:pageshadow="2"
     inkscape:zoom="1.4142136"
     inkscape:cx="83.479328"
     inkscape:cy="274.8562"
     inkscape:document-units="mm"
     inkscape:current-layer="layer1"
     showgrid="false"
     showguides="true"
     inkscape:guide-bbox="true"
     inkscape:window-width="2560"
     inkscape:window-height="1345"
     inkscape:window-x="0"
     inkscape:window-y="27"
     inkscape:window-maximized="1"
     inkscape:snap-global="false"
     units="px" />
  <metadata
     id="metadata5">
    <rdf:RDF>
      <cc:Work
         rdf:about="">
        <dc:format>image/svg+xml</dc:format>
        <dc:type
           rdf:resource="http://purl.org/dc/dcmitype/StillImage" />
        <dc:title />
      </cc:Work>
    </rdf:RDF>
  </metadata>
  <g
     inkscape:label="Layer 1"
     inkscape:groupmode="layer"
     id="layer1"
     transform="translate(0,-191.16665)">
    <g
       aria-label="Self-host"
       style="font-style:normal;font-variant:normal;font-weight:normal;font-stretch:normal;font-size:13.74775028px;line-height:1.25;font-family:'Roboto Slab';-inkscape-font-specification:'Roboto Slab, Normal';font-variant-ligatures:normal;font-variant-caps:normal;font-variant-numeric:normal;font-feature-settings:normal;text-align:start;letter-spacing:0px;word-spacing:0px;writing-mode:lr-tb;text-anchor:start;fill:#000000;fill-opacity:1;stroke:none;stroke-width:0.3436915"
       id="text975"
       transform="translate(0,-2.245064)">
      <path
         d="m 30.821589,279.97748 h -1.000203 l -0.248372,-1.39626 q -0.302075,-0.25509 -0.805533,-0.4229 -0.503457,-0.16782 -1.168021,-0.16782 -1.053905,0 -1.617778,0.44975 -0.563872,0.44304 -0.563872,1.16131 0,0.63771 0.570585,1.06733 0.577298,0.42291 1.859437,0.74512 1.543937,0.38263 2.342756,1.12774 0.805533,0.74512 0.805533,1.84601 0,1.18145 -0.966639,1.89972 -0.959926,0.71826 -2.517288,0.71826 -1.127745,0 -2.007118,-0.3692 -0.87266,-0.3692 -1.423107,-0.96664 v -1.81916 h 0.99349 l 0.255085,1.40297 q 0.382628,0.3155 0.912936,0.51689 0.530309,0.20138 1.268714,0.20138 1.000202,0 1.5775,-0.42291 0.584011,-0.4229 0.584011,-1.14788 0,-0.67128 -0.503457,-1.12103 -0.503458,-0.45647 -1.778884,-0.76526 -1.55065,-0.3692 -2.42331,-1.08747 -0.87266,-0.71826 -0.87266,-1.80573 0,-1.14788 0.973352,-1.90643 0.973351,-0.76525 2.530714,-0.76525 1.027053,0 1.866149,0.35577 0.845809,0.34907 1.35598,0.85253 z"
         style="font-style:normal;font-variant:normal;font-weight:normal;font-stretch:normal;font-size:13.74775028px;font-family:'Roboto Slab';-inkscape-font-specification:'Roboto Slab, Normal';font-variant-ligatures:normal;font-variant-caps:normal;font-variant-numeric:normal;font-feature-settings:normal;text-align:start;writing-mode:lr-tb;text-anchor:start;stroke-width:0.3436915"
         id="path2206"
         inkscape:connector-curvature="0" />
      <path
         d="m 35.560803,287.00574 q -1.517086,0 -2.416597,-1.00691 -0.892798,-1.01363 -0.892798,-2.62469 v -0.29536 q 0,-1.55065 0.919649,-2.57771 0.926362,-1.03376 2.188363,-1.03376 1.463383,0 2.215214,0.88608 0.758542,0.88609 0.758542,2.3629 v 0.82567 h -4.712363 l -0.02014,0.0336 q 0.02014,1.04719 0.530309,1.72518 0.510171,0.67128 1.42982,0.67128 0.671277,0 1.174734,-0.18796 0.510171,-0.19467 0.879373,-0.53031 l 0.516883,0.85924 q -0.38934,0.37591 -1.033766,0.63771 -0.637713,0.25508 -1.537224,0.25508 z m -0.201383,-6.49796 q -0.664564,0 -1.134458,0.56388 -0.469894,0.55716 -0.577298,1.40297 l 0.01342,0.0336 h 3.349672 v -0.17453 q 0,-0.77868 -0.416192,-1.30228 -0.416191,-0.5236 -1.235149,-0.5236 z"
         style="font-style:normal;font-variant:normal;font-weight:normal;font-stretch:normal;font-size:13.74775028px;font-family:'Roboto Slab';-inkscape-font-specification:'Roboto Slab, Normal';font-variant-ligatures:normal;font-variant-caps:normal;font-variant-numeric:normal;font-feature-settings:normal;text-align:start;writing-mode:lr-tb;text-anchor:start;stroke-width:0.3436915"
         id="path2208"
         inkscape:connector-curvature="0" />
      <path
         d="m 39.447496,277.24538 v -0.85252 h 2.416597 v 9.43815 l 1.094181,0.18796 v 0.84581 h -3.510778 v -0.84581 l 1.094181,-0.18796 v -8.39767 z"
         style="font-style:normal;font-variant:normal;font-weight:normal;font-stretch:normal;font-size:13.74775028px;font-family:'Roboto Slab';-inkscape-font-specification:'Roboto Slab, Normal';font-variant-ligatures:normal;font-variant-caps:normal;font-variant-numeric:normal;font-feature-settings:normal;text-align:start;writing-mode:lr-tb;text-anchor:start;stroke-width:0.3436915"
         id="path2210"
         inkscape:connector-curvature="0" />
      <path
         d="m 43.82422,280.58163 v -0.98007 h 1.134458 v -0.91965 q 0,-1.16131 0.604149,-1.79231 0.610862,-0.63771 1.698331,-0.63771 0.228234,0 0.456468,0.0403 0.234947,0.0336 0.516883,0.10069 l -0.161106,1.00691 q -0.12083,-0.0268 -0.295362,-0.047 -0.167819,-0.0201 -0.349064,-0.0201 -0.584011,0 -0.865947,0.34906 -0.281937,0.34235 -0.281937,1.0002 v 0.91965 h 1.517086 v 0.98007 h -1.517086 v 5.24938 l 1.094182,0.18796 v 0.84581 h -3.510778 v -0.84581 l 1.094181,-0.18796 v -5.24938 z"
         style="font-style:normal;font-variant:normal;font-weight:normal;font-stretch:normal;font-size:13.74775028px;font-family:'Roboto Slab';-inkscape-font-specification:'Roboto Slab, Normal';font-variant-ligatures:normal;font-variant-caps:normal;font-variant-numeric:normal;font-feature-settings:normal;text-align:start;writing-mode:lr-tb;text-anchor:start;stroke-width:0.3436915"
         id="path2212"
         inkscape:connector-curvature="0" />
      <path
         d="m 52.557533,283.25331 h -3.282544 v -1.03377 h 3.282544 z"
         style="font-style:normal;font-variant:normal;font-weight:normal;font-stretch:normal;font-size:13.74775028px;font-family:'Roboto Slab';-inkscape-font-specification:'Roboto Slab, Normal';font-variant-ligatures:normal;font-variant-caps:normal;font-variant-numeric:normal;font-feature-settings:normal;text-align:start;writing-mode:lr-tb;text-anchor:start;stroke-width:0.3436915"
         id="path2214"
         inkscape:connector-curvature="0" />
      <path
         d="m 54.000779,286.01897 1.094181,-0.18796 v -8.39767 l -1.094181,-0.18796 v -0.85252 h 2.416596 v 4.17534 q 0.375916,-0.5236 0.91965,-0.81225 0.543734,-0.28864 1.208298,-0.28864 1.168022,0 1.812448,0.69812 0.644426,0.69813 0.644426,2.14809 v 3.51749 l 1.094181,0.18796 v 0.84581 H 58.5856 v -0.84581 l 1.094181,-0.18796 v -3.53092 q 0,-0.89951 -0.389341,-1.32912 -0.382627,-0.42962 -1.147883,-0.42962 -0.543734,0 -0.99349,0.2618 -0.443042,0.25508 -0.731692,0.69812 v 4.32974 l 1.094182,0.18796 v 0.84581 h -3.510778 z"
         style="font-style:normal;font-variant:normal;font-weight:normal;font-stretch:normal;font-size:13.74775028px;font-family:'Roboto Slab';-inkscape-font-specification:'Roboto Slab, Normal';font-variant-ligatures:normal;font-variant-caps:normal;font-variant-numeric:normal;font-feature-settings:normal;text-align:start;writing-mode:lr-tb;text-anchor:start;stroke-width:0.3436915"
         id="path2216"
         inkscape:connector-curvature="0" />
      <path
         d="m 63.022738,283.16604 q 0,-1.61106 0.87266,-2.65154 0.87266,-1.04719 2.369607,-1.04719 1.50366,0 2.37632,1.04047 0.879373,1.04048 0.879373,2.65826 v 0.14768 q 0,1.62449 -0.87266,2.65826 -0.87266,1.03376 -2.369607,1.03376 -1.510373,0 -2.383033,-1.03376 -0.87266,-1.04048 -0.87266,-2.65826 z m 1.322415,0.14768 q 0,1.1546 0.48332,1.90643 0.490032,0.75183 1.449958,0.75183 0.939787,0 1.429819,-0.75183 0.490032,-0.75183 0.490032,-1.90643 v -0.14768 q 0,-1.14117 -0.490032,-1.89971 -0.490032,-0.75855 -1.443245,-0.75855 -0.953213,0 -1.436532,0.75855 -0.48332,0.75854 -0.48332,1.89971 z"
         style="font-style:normal;font-variant:normal;font-weight:normal;font-stretch:normal;font-size:13.74775028px;font-family:'Roboto Slab';-inkscape-font-specification:'Roboto Slab, Normal';font-variant-ligatures:normal;font-variant-caps:normal;font-variant-numeric:normal;font-feature-settings:normal;text-align:start;writing-mode:lr-tb;text-anchor:start;stroke-width:0.3436915"
         id="path2218"
         inkscape:connector-curvature="0" />
      <path
         d="m 76.280458,281.8839 h -0.99349 l -0.214808,-0.87266 q -0.24166,-0.22823 -0.610862,-0.36249 -0.36249,-0.14097 -0.825671,-0.14097 -0.70484,0 -1.047192,0.30879 -0.342351,0.30879 -0.342351,0.74512 0,0.42962 0.302075,0.67799 0.302074,0.24837 1.228436,0.44304 1.376118,0.29536 2.047395,0.80553 0.671277,0.50346 0.671277,1.35598 0,0.96664 -0.785394,1.56408 -0.778681,0.59743 -2.040682,0.59743 -0.82567,0 -1.483522,-0.18795 -0.657851,-0.19467 -1.174734,-0.55716 l -0.0067,-1.65806 h 0.99349 l 0.248372,0.97336 q 0.228234,0.20809 0.617575,0.30207 0.396053,0.094 0.805532,0.094 0.704841,0 1.100894,-0.28194 0.402766,-0.28865 0.402766,-0.75183 0,-0.43633 -0.335638,-0.71826 -0.328926,-0.28194 -1.255288,-0.49004 -1.322415,-0.28865 -1.993692,-0.78539 -0.671277,-0.49675 -0.671277,-1.34255 0,-0.88609 0.75183,-1.51038 0.758543,-0.62428 1.966841,-0.62428 0.825671,0 1.483522,0.2148 0.657852,0.21481 1.094182,0.59744 z"
         style="font-style:normal;font-variant:normal;font-weight:normal;font-stretch:normal;font-size:13.74775028px;font-family:'Roboto Slab';-inkscape-font-specification:'Roboto Slab, Normal';font-variant-ligatures:normal;font-variant-caps:normal;font-variant-numeric:normal;font-feature-settings:normal;text-align:start;writing-mode:lr-tb;text-anchor:start;stroke-width:0.3436915"
         id="path2220"
         inkscape:connector-curvature="0" />
      <path
         d="m 80.039607,277.84953 v 1.75203 h 1.376118 v 0.98007 h -1.376118 v 4.41028 q 0,0.51017 0.208096,0.71827 0.214809,0.2081 0.563873,0.2081 0.174532,0 0.38934,-0.0268 0.221522,-0.0336 0.369203,-0.0671 l 0.181244,0.90622 q -0.187957,0.12083 -0.550447,0.19467 -0.362489,0.0806 -0.724979,0.0806 -0.805532,0 -1.282139,-0.48331 -0.476606,-0.49004 -0.476606,-1.53052 v -4.41028 h -1.147884 v -0.98007 h 1.147884 v -1.75203 z"
         style="font-style:normal;font-variant:normal;font-weight:normal;font-stretch:normal;font-size:13.74775028px;font-family:'Roboto Slab';-inkscape-font-specification:'Roboto Slab, Normal';font-variant-ligatures:normal;font-variant-caps:normal;font-variant-numeric:normal;font-feature-settings:normal;text-align:start;writing-mode:lr-tb;text-anchor:start;stroke-width:0.3436915"
         id="path2222"
         inkscape:connector-curvature="0" />
    </g>
    <g
       id="g2328"
       transform="translate(0,-6.1739261)">
      <path
         sodipodi:nodetypes="ccccc"
         inkscape:connector-curvature="0"
         id="path2248"
         d="m 36.856468,264.16592 2.666014,5.00462 h 26.519816 l 3.010195,-4.98938 z"
         style="fill:#884829;fill-opacity:1;stroke:none;stroke-width:0.33189434px;stroke-linecap:butt;stroke-linejoin:miter;stroke-opacity:1" />
      <g
         style="stroke-width:1.20427203"
         transform="matrix(4.9717749,0,0,4.9717749,-457.34152,-604.28345)"
         id="g939">
        <g
           style="stroke-width:1.20427203"
           id="g922"
           transform="translate(-5.55625)">
          <path
             sodipodi:nodetypes="cccccccccccccccccccccccc"
             inkscape:connector-curvature="0"
             id="path912"
             d="m 108.04804,174.66564 0.0591,-1.25204 -0.2953,-0.28349 -0.11812,-0.4016 -0.37797,-0.41341 0.36616,0.23624 0.0354,-0.4961 0.0945,0.66146 0.14174,0.38979 0.22443,0.2008 -0.0614,-0.50791 -0.0197,-0.53153 0.19917,0.0709 -0.0236,0.37797 0.0591,0.31892 0.3071,-0.22441 0.16537,-0.2008 0.12993,-0.36616 0.15355,0.25986 -0.15355,0.16536 -0.18899,0.27167 -0.37798,0.4961 0.0591,1.22843 z"
             style="fill:#a35f55;fill-opacity:1;stroke:none;stroke-width:0.31863025px;stroke-linecap:butt;stroke-linejoin:miter;stroke-opacity:1" />
          <path
             sodipodi:nodetypes="ccccc"
             inkscape:connector-curvature="0"
             id="path916"
             d="m 108.04804,174.66564 0.0591,-1.25204 0.0681,0.81781 0.12311,0.43429 z"
             style="fill:#ce796c;fill-opacity:1;stroke:none;stroke-width:0.31863025px;stroke-linecap:butt;stroke-linejoin:miter;stroke-opacity:1" />
        </g>
        <path
           style="fill:#6d8d42;fill-opacity:1;stroke:none;stroke-width:0.31863025px;stroke-linecap:butt;stroke-linejoin:miter;stroke-opacity:1"
           d="m 100.46482,172.50251 c 0.0835,0 0.80181,-0.21716 0.80181,-0.21716 l 2.20497,0.20046 0.93544,0.25056 0.83522,-0.70158 0.0668,-0.66818 -0.56795,-0.11693 0.35079,-0.55124 -0.63476,-0.88533 -0.0501,-0.61806 -0.38419,-0.61806 -1.55351,-0.51783 -0.53454,0.31738 -0.51783,0.7684 -0.16704,0.60135 -0.7517,0.0501 -0.668185,0.75169 0.751705,0.63477 -0.734995,0.48442 0.217155,0.63477 z"
           id="path890"
           inkscape:connector-curvature="0"
           sodipodi:nodetypes="ccccccccccccccccccccc" />
        <path
           sodipodi:nodetypes="ccccccccccccccccccccccccc"
           inkscape:connector-curvature="0"
           id="path892"
           d="m 104.40704,169.19505 -0.38419,-0.61806 -1.55351,-0.51783 -0.53454,0.31738 -0.51783,0.7684 0.68383,-0.2054 0.79505,-0.052 0.72636,0.30186 0.78483,0.006 v 0 0 0 0 0 0 0 1e-5 0 0 0 0 0 0 0 z"
           style="fill:#809f55;fill-opacity:1;stroke:none;stroke-width:0.31863025px;stroke-linecap:butt;stroke-linejoin:miter;stroke-opacity:1" />
        <path
           sodipodi:nodetypes="ccccccccccccccc"
           inkscape:connector-curvature="0"
           id="path894"
           d="m 105.0919,170.69844 -0.63476,-0.88533 -0.0501,-0.61806 c -0.98712,-0.3723 -1.86788,-0.71763 -2.99007,-0.0501 l -0.16704,0.60135 -0.7517,0.0501 -0.668185,0.75169 0.666085,0.13573 0.64938,-0.0981 0.5241,-0.18165 0.58256,0.16075 0.91664,-0.16494 0.70786,0.27771 0.64937,-0.048 z"
           style="fill:#779849;fill-opacity:1;stroke:none;stroke-width:0.31863025px;stroke-linecap:butt;stroke-linejoin:miter;stroke-opacity:1" />
        <path
           sodipodi:nodetypes="ccccccccc"
           inkscape:connector-curvature="0"
           id="path896"
           d="m 100.46482,172.50251 c 0.0835,0 0.80181,-0.21716 0.80181,-0.21716 l 2.20497,0.20046 0.93544,0.25056 -0.35915,-0.5095 -1.36139,-0.28397 -1.61197,0.15868 -1.01062,0.20043 z"
           style="fill:#65813d;fill-opacity:1;stroke:none;stroke-width:0.31863025px;stroke-linecap:butt;stroke-linejoin:miter;stroke-opacity:1" />
        <ellipse
           style="opacity:1;fill:#6d8d42;fill-opacity:1;fill-rule:nonzero;stroke:none;stroke-width:0.60213602;stroke-linecap:round;stroke-linejoin:miter;stroke-miterlimit:4;stroke-dasharray:none;stroke-dashoffset:0;stroke-opacity:1;paint-order:normal"
           id="path898"
           cx="101.73766"
           cy="169.70523"
           rx="0.054455511"
           ry="0.10248051" />
        <ellipse
           ry="0.10248051"
           rx="0.054455511"
           cy="168.68942"
           cx="102.64717"
           id="ellipse900"
           style="opacity:1;fill:#779849;fill-opacity:1;fill-rule:nonzero;stroke:none;stroke-width:0.60213602;stroke-linecap:round;stroke-linejoin:miter;stroke-miterlimit:4;stroke-dasharray:none;stroke-dashoffset:0;stroke-opacity:1;paint-order:normal" />
        <ellipse
           style="opacity:1;fill:#6d8d42;fill-opacity:1;fill-rule:nonzero;stroke:none;stroke-width:0.60213602;stroke-linecap:round;stroke-linejoin:miter;stroke-miterlimit:4;stroke-dasharray:none;stroke-dashoffset:0;stroke-opacity:1;paint-order:normal"
           id="ellipse902"
           cx="103.01334"
           cy="169.92966"
           rx="0.054455511"
           ry="0.10248051" />
        <ellipse
           ry="0.10248051"
           rx="0.054455511"
           cy="170.34306"
           cx="100.52106"
           id="ellipse904"
           style="opacity:1;fill:#6d8d42;fill-opacity:1;fill-rule:nonzero;stroke:none;stroke-width:0.60213602;stroke-linecap:round;stroke-linejoin:miter;stroke-miterlimit:4;stroke-dasharray:none;stroke-dashoffset:0;stroke-opacity:1;paint-order:normal" />
        <ellipse
           ry="0.10248051"
           rx="0.054455511"
           cy="171.25258"
           cx="103.80473"
           id="ellipse906"
           style="opacity:1;fill:#65813d;fill-opacity:1;fill-rule:nonzero;stroke:none;stroke-width:0.60213602;stroke-linecap:round;stroke-linejoin:miter;stroke-miterlimit:4;stroke-dasharray:none;stroke-dashoffset:0;stroke-opacity:1;paint-order:normal" />
        <ellipse
           style="opacity:1;fill:#65813d;fill-opacity:1;fill-rule:nonzero;stroke:none;stroke-width:0.60213602;stroke-linecap:round;stroke-linejoin:miter;stroke-miterlimit:4;stroke-dasharray:none;stroke-dashoffset:0;stroke-opacity:1;paint-order:normal"
           id="ellipse908"
           cx="102.06841"
           cy="171.07541"
           rx="0.054455511"
           ry="0.10248051" />
        <ellipse
           ry="0.10248051"
           rx="0.054455511"
           cy="171.71324"
           cx="101.15891"
           id="ellipse910"
           style="opacity:1;fill:#65813d;fill-opacity:1;fill-rule:nonzero;stroke:none;stroke-width:0.60213602;stroke-linecap:round;stroke-linejoin:miter;stroke-miterlimit:4;stroke-dasharray:none;stroke-dashoffset:0;stroke-opacity:1;paint-order:normal" />
        <path
           style="fill:#ce796c;fill-opacity:1;stroke:none;stroke-width:0.31863025px;stroke-linecap:butt;stroke-linejoin:miter;stroke-opacity:1"
           d="m 102.2556,173.13011 0.32419,0.24953 -0.0145,0.17983 -0.0144,-0.14587 z"
           id="path918"
           inkscape:connector-curvature="0" />
      </g>
      <rect
         y="262.69858"
         x="37.067398"
         height="2.4130642"
         width="31.584635"
         id="rect2250"
         style="opacity:1;fill:#7ea748;fill-opacity:1;fill-rule:nonzero;stroke:none;stroke-width:0.44771072;stroke-linecap:round;stroke-linejoin:miter;stroke-miterlimit:4;stroke-dasharray:none;stroke-dashoffset:0;stroke-opacity:1;paint-order:normal" />
      <path
         sodipodi:nodetypes="cccccccccccc"
         inkscape:connector-curvature="0"
         id="path828"
         d="m 42.814573,221.61521 v 7.76741 c -1.195594,2.09205 -6.002248,4.913 -5.99938,7.79699 v 26.20977 c -0.0017,3.13505 1.496333,4.33186 3.400365,5.9994 h 12.701113 12.701113 c 1.904044,-1.66754 3.402089,-2.86435 3.400359,-5.9994 v -26.20977 c 0.0029,-2.88399 -4.80378,-5.70494 -5.99938,-7.79699 v -7.76741 z"
         style="fill:none;fill-opacity:1;stroke:#424242;stroke-width:2.39494753;stroke-linecap:round;stroke-linejoin:miter;stroke-miterlimit:4;stroke-dasharray:none;stroke-opacity:1" />
      <path
         inkscape:connector-curvature="0"
         id="path843"
         d="m 40.235891,227.33991 h 8.628002"
         style="fill:none;stroke:#424242;stroke-width:2.39494753;stroke-linecap:butt;stroke-linejoin:miter;stroke-miterlimit:4;stroke-dasharray:none;stroke-opacity:1" />
      <path
         inkscape:connector-curvature="0"
         id="path845"
         d="M 54.875205,227.2692 H 65.412693"
         style="fill:none;stroke:#424242;stroke-width:2.39494753;stroke-linecap:butt;stroke-linejoin:miter;stroke-miterlimit:4;stroke-dasharray:none;stroke-opacity:1" />
      <rect
         ry="1.5780511"
         y="217.58038"
         x="39.126003"
         height="6.0113225"
         width="27.581316"
         id="rect847"
         style="opacity:1;fill:#f6991a;fill-opacity:0.99607843;fill-rule:nonzero;stroke:none;stroke-width:2.39494753;stroke-linecap:round;stroke-linejoin:miter;stroke-miterlimit:4;stroke-dasharray:none;stroke-dashoffset:0;stroke-opacity:1;paint-order:normal" />
      <path
         inkscape:connector-curvature="0"
         id="path868"
         d="m 41.506231,220.58975 h 3.192614"
         style="fill:none;stroke:#ffffff;stroke-width:2.99368453;stroke-linecap:butt;stroke-linejoin:miter;stroke-miterlimit:4;stroke-dasharray:none;stroke-opacity:1" />
      <path
         sodipodi:nodetypes="cc"
         inkscape:connector-curvature="0"
         id="path841"
         d="m 42.28681,246.01032 v 14.56859"
         style="fill:none;stroke:#424242;stroke-width:2.39494753;stroke-linecap:butt;stroke-linejoin:miter;stroke-miterlimit:4;stroke-dasharray:none;stroke-opacity:1" />
      <path
         sodipodi:nodetypes="cc"
         inkscape:connector-curvature="0"
         id="path839"
         d="m 42.216093,238.08951 v 3.8897"
         style="fill:none;stroke:#424242;stroke-width:2.39494753;stroke-linecap:butt;stroke-linejoin:miter;stroke-miterlimit:4;stroke-dasharray:none;stroke-opacity:1" />
      <circle
         r="0.53787994"
         cy="267.10086"
         cx="42.925156"
         id="path2252"
         style="opacity:1;fill:#572915;fill-opacity:1;fill-rule:nonzero;stroke:none;stroke-width:0.5;stroke-linecap:round;stroke-linejoin:miter;stroke-miterlimit:4;stroke-dasharray:none;stroke-dashoffset:0;stroke-opacity:1;paint-order:normal" />
      <circle
         style="opacity:1;fill:#572915;fill-opacity:1;fill-rule:nonzero;stroke:none;stroke-width:0.5;stroke-linecap:round;stroke-linejoin:miter;stroke-miterlimit:4;stroke-dasharray:none;stroke-dashoffset:0;stroke-opacity:1;paint-order:normal"
         id="circle2254"
         cx="46.047199"
         cy="265.86139"
         r="0.53787994" />
      <circle
         r="0.53787994"
         cy="265.86139"
         cx="46.047199"
         id="circle2256"
         style="opacity:1;fill:#572915;fill-opacity:1;fill-rule:nonzero;stroke:none;stroke-width:0.5;stroke-linecap:round;stroke-linejoin:miter;stroke-miterlimit:4;stroke-dasharray:none;stroke-dashoffset:0;stroke-opacity:1;paint-order:normal" />
      <circle
         style="opacity:1;fill:#572915;fill-opacity:1;fill-rule:nonzero;stroke:none;stroke-width:0.5;stroke-linecap:round;stroke-linejoin:miter;stroke-miterlimit:4;stroke-dasharray:none;stroke-dashoffset:0;stroke-opacity:1;paint-order:normal"
         id="circle2258"
         cx="48.795063"
         cy="267.20609"
         r="0.53787994" />
      <circle
         style="opacity:1;fill:#572915;fill-opacity:1;fill-rule:nonzero;stroke:none;stroke-width:0.5;stroke-linecap:round;stroke-linejoin:miter;stroke-miterlimit:4;stroke-dasharray:none;stroke-dashoffset:0;stroke-opacity:1;paint-order:normal"
         id="circle2260"
         cx="51.917107"
         cy="265.96661"
         r="0.53787994" />
      <circle
         r="0.53787994"
         cy="267.29962"
         cx="53.963387"
         id="circle2262"
         style="opacity:1;fill:#572915;fill-opacity:1;fill-rule:nonzero;stroke:none;stroke-width:0.5;stroke-linecap:round;stroke-linejoin:miter;stroke-miterlimit:4;stroke-dasharray:none;stroke-dashoffset:0;stroke-opacity:1;paint-order:normal" />
      <circle
         r="0.53787994"
         cy="266.06015"
         cx="57.08543"
         id="circle2264"
         style="opacity:1;fill:#572915;fill-opacity:1;fill-rule:nonzero;stroke:none;stroke-width:0.5;stroke-linecap:round;stroke-linejoin:miter;stroke-miterlimit:4;stroke-dasharray:none;stroke-dashoffset:0;stroke-opacity:1;paint-order:normal" />
      <circle
         style="opacity:1;fill:#572915;fill-opacity:1;fill-rule:nonzero;stroke:none;stroke-width:0.5;stroke-linecap:round;stroke-linejoin:miter;stroke-miterlimit:4;stroke-dasharray:none;stroke-dashoffset:0;stroke-opacity:1;paint-order:normal"
         id="circle2266"
         cx="59.20187"
         cy="267.27625"
         r="0.53787994" />
      <circle
         style="opacity:1;fill:#572915;fill-opacity:1;fill-rule:nonzero;stroke:none;stroke-width:0.5;stroke-linecap:round;stroke-linejoin:miter;stroke-miterlimit:4;stroke-dasharray:none;stroke-dashoffset:0;stroke-opacity:1;paint-order:normal"
         id="circle2268"
         cx="62.323914"
         cy="266.03677"
         r="0.53787994" />
      <circle
         style="opacity:1;fill:#6c913b;fill-opacity:1;fill-rule:nonzero;stroke:none;stroke-width:0.5;stroke-linecap:round;stroke-linejoin:miter;stroke-miterlimit:4;stroke-dasharray:none;stroke-dashoffset:0;stroke-opacity:1;paint-order:normal"
         id="circle2270"
         cx="40.340996"
         cy="263.99051"
         r="0.53787994" />
      <circle
         r="0.53787994"
         cy="264.01389"
         cx="43.872295"
         id="circle2272"
         style="opacity:1;fill:#6c913b;fill-opacity:1;fill-rule:nonzero;stroke:none;stroke-width:0.5;stroke-linecap:round;stroke-linejoin:miter;stroke-miterlimit:4;stroke-dasharray:none;stroke-dashoffset:0;stroke-opacity:1;paint-order:normal" />
      <circle
         r="0.53787994"
         cy="263.99051"
         cx="47.567295"
         id="circle2274"
         style="opacity:1;fill:#6c913b;fill-opacity:1;fill-rule:nonzero;stroke:none;stroke-width:0.5;stroke-linecap:round;stroke-linejoin:miter;stroke-miterlimit:4;stroke-dasharray:none;stroke-dashoffset:0;stroke-opacity:1;paint-order:normal" />
      <circle
         style="opacity:1;fill:#6c913b;fill-opacity:1;fill-rule:nonzero;stroke:none;stroke-width:0.5;stroke-linecap:round;stroke-linejoin:miter;stroke-miterlimit:4;stroke-dasharray:none;stroke-dashoffset:0;stroke-opacity:1;paint-order:normal"
         id="circle2276"
         cx="51.098595"
         cy="264.01389"
         r="0.53787994" />
      <circle
         style="opacity:1;fill:#6c913b;fill-opacity:1;fill-rule:nonzero;stroke:none;stroke-width:0.5;stroke-linecap:round;stroke-linejoin:miter;stroke-miterlimit:4;stroke-dasharray:none;stroke-dashoffset:0;stroke-opacity:1;paint-order:normal"
         id="circle2278"
         cx="54.863754"
         cy="263.99051"
         r="0.53787994" />
      <circle
         r="0.53787994"
         cy="264.01389"
         cx="58.395054"
         id="circle2280"
         style="opacity:1;fill:#6c913b;fill-opacity:1;fill-rule:nonzero;stroke:none;stroke-width:0.5;stroke-linecap:round;stroke-linejoin:miter;stroke-miterlimit:4;stroke-dasharray:none;stroke-dashoffset:0;stroke-opacity:1;paint-order:normal" />
      <circle
         r="0.53787994"
         cy="263.99051"
         cx="61.715878"
         id="circle2282"
         style="opacity:1;fill:#6c913b;fill-opacity:1;fill-rule:nonzero;stroke:none;stroke-width:0.5;stroke-linecap:round;stroke-linejoin:miter;stroke-miterlimit:4;stroke-dasharray:none;stroke-dashoffset:0;stroke-opacity:1;paint-order:normal" />
      <circle
         style="opacity:1;fill:#6c913b;fill-opacity:1;fill-rule:nonzero;stroke:none;stroke-width:0.5;stroke-linecap:round;stroke-linejoin:miter;stroke-miterlimit:4;stroke-dasharray:none;stroke-dashoffset:0;stroke-opacity:1;paint-order:normal"
         id="circle2284"
         cx="65.247177"
         cy="264.01389"
         r="0.53787994" />
    </g>
  </g>
</svg>
